<svg width="20" height="20" viewBox="0 0 20 20" fill="none" xmlns="http://www.w3.org/2000/svg">
<g clip-path="url(#clip0_16_422)">
<path d="M12.5658 4.99914L12.765 5.00914C13.9567 5.08998 15.6267 5.85331 16.5217 7.16414C16.5872 7.2601 16.6319 7.36869 16.6529 7.48294C16.674 7.5972 16.6709 7.71459 16.6439 7.82759C16.6169 7.94059 16.5666 8.04669 16.4962 8.1391C16.4258 8.2315 16.3368 8.30815 16.235 8.36414C16.1933 8.38748 15.925 8.49581 15.8208 8.54498C15.6086 8.64402 15.407 8.76436 15.2192 8.90414C14.7075 9.28831 14.4292 9.74498 14.4342 10.3158C14.4425 11.0533 14.7167 11.5275 15.19 11.8541C15.3633 11.9733 15.5533 12.065 15.745 12.1291C15.85 12.165 16.1 12.2258 16.115 12.2308C16.2766 12.2889 16.4164 12.3954 16.5151 12.536C16.6139 12.6765 16.6668 12.8441 16.6667 13.0158C16.6667 15.2 14.1333 18.3333 12.2617 18.3333C11.6033 18.3333 11.2017 18.2575 10.6092 18.0708L10.5275 18.045C10.1417 17.9233 9.9425 17.885 9.58333 17.885C9.15 17.885 8.86417 17.935 8.31833 18.0825L8.15417 18.1266C7.675 18.2541 7.35083 18.315 6.90417 18.3333C4.61333 18.3333 2.5 14.0891 2.5 10.7733C2.5 7.54831 3.98833 5.00664 6.905 5.00664C7.1525 5.00664 7.40333 5.04414 7.6625 5.11331C7.99833 5.20248 8.3075 5.32998 8.7425 5.53664C9.39833 5.84831 9.5325 5.90331 9.58333 5.90331H9.59667C9.62167 5.90081 9.70333 5.86414 10.4767 5.52248C11.3608 5.13331 12.03 4.95164 12.765 5.00914L12.565 4.99914H12.5658Z" fill="#2D292E"/>
<path d="M11.6667 0.833313C11.8877 0.833313 12.0996 0.92111 12.2559 1.07739C12.4122 1.23367 12.5 1.44563 12.5 1.66665C12.5 2.32969 12.2366 2.96557 11.7678 3.43441C11.2989 3.90325 10.663 4.16665 9.99999 4.16665C9.77898 4.16665 9.56701 4.07885 9.41073 3.92257C9.25445 3.76629 9.16666 3.55433 9.16666 3.33331C9.16666 2.67027 9.43005 2.03439 9.89889 1.56555C10.3677 1.09671 11.0036 0.833313 11.6667 0.833313Z" fill="#2D292E"/>
</g>
<defs>
<clipPath id="clip0_16_422">
<rect width="20" height="20" fill="white"/>
</clipPath>
</defs>
</svg>
