<svg width="48" height="48" viewBox="0 0 48 48" fill="none" xmlns="http://www.w3.org/2000/svg">
<g clip-path="url(#clip0_16_466)">
<path d="M24 4C23.564 4 23.136 4.004 22.716 4.01L21.484 4.044L20.886 4.07L19.728 4.138L18.622 4.23C9.052 5.158 5.158 9.052 4.23 18.622L4.138 19.728L4.07 20.886C4.06 21.082 4.05 21.282 4.044 21.484L4.01 22.716L4.002 23.352L4 24C4 24.436 4.004 24.864 4.01 25.284L4.044 26.516L4.07 27.114L4.138 28.272L4.23 29.378C5.158 38.948 9.052 42.842 18.622 43.77L19.728 43.862L20.886 43.93C21.082 43.94 21.282 43.95 21.484 43.956L22.716 43.99L24 44L25.284 43.99L26.516 43.956L27.114 43.93L28.272 43.862L29.378 43.77C38.948 42.842 42.842 38.948 43.77 29.378L43.862 28.272L43.93 27.114C43.94 26.918 43.95 26.718 43.956 26.516L43.99 25.284L44 24L43.99 22.716L43.956 21.484L43.93 20.886L43.862 19.728L43.77 18.622C42.842 9.052 38.948 5.158 29.378 4.23L28.272 4.138L27.114 4.07C26.9147 4.06027 26.7154 4.0516 26.516 4.044L25.284 4.01L24.648 4.002L24 4ZM28.586 18.586C28.9459 18.2273 29.4289 18.0191 29.9368 18.0035C30.4447 17.988 30.9394 18.1664 31.3206 18.5025C31.7017 18.8386 31.9406 19.3071 31.9888 19.8129C32.037 20.3188 31.8908 20.824 31.58 21.226L31.414 21.414L23.414 29.414C23.0696 29.7584 22.6114 29.9652 22.1254 29.9958C21.6393 30.0263 21.1588 29.8785 20.774 29.58L20.586 29.414L16.586 25.414C16.2273 25.0541 16.0191 24.5711 16.0035 24.0632C15.988 23.5553 16.1664 23.0606 16.5025 22.6794C16.8386 22.2983 17.3071 22.0594 17.8129 22.0112C18.3188 21.963 18.824 22.1092 19.226 22.42L19.414 22.586L22 25.17L28.586 18.586Z" fill="#00A97D"/>
</g>
<defs>
<clipPath id="clip0_16_466">
<rect width="48" height="48" fill="white"/>
</clipPath>
</defs>
</svg>
