<svg width="20" height="20" viewBox="0 0 20 20" fill="none" xmlns="http://www.w3.org/2000/svg">
<g clip-path="url(#clip0_377_110)">
<path d="M19.1667 10.4001C19.1667 9.76439 19.1151 9.12527 19.0052 8.4999H10.1847V12.1009H15.2358C15.0262 13.2623 14.3527 14.2897 13.3665 14.9426V17.2791H16.38C18.1496 15.6504 19.1667 13.2452 19.1667 10.4001Z" fill="#4285F4"/>
<path d="M10.1847 19.5366C12.7068 19.5366 14.8337 18.7085 16.3834 17.2791L13.3699 14.9426C12.5315 15.513 11.4492 15.836 10.1881 15.836C7.74849 15.836 5.67996 14.1901 4.93776 11.9772H1.82809V14.3859C3.41557 17.5437 6.64894 19.5366 10.1847 19.5366Z" fill="#34A853"/>
<path d="M4.93433 11.9772C4.54262 10.8158 4.54262 9.55821 4.93433 8.39681V5.9881H1.8281C0.501765 8.63046 0.501755 11.7436 1.82809 14.3859L4.93433 11.9772Z" fill="#FBBC04"/>
<path d="M10.1847 4.53462C11.5179 4.51401 12.8064 5.01568 13.772 5.93655L16.4418 3.2667C14.7513 1.67922 12.5075 0.806454 10.1847 0.833943C6.64894 0.833943 3.41558 2.82689 1.8281 5.9881L4.93433 8.39681C5.67309 6.18052 7.74505 4.53462 10.1847 4.53462Z" fill="#EA4335"/>
</g>
<defs>
<clipPath id="clip0_377_110">
<rect width="20" height="20" fill="white"/>
</clipPath>
</defs>
</svg>
