<svg width="93" height="44" viewBox="0 0 93 44" fill="none" xmlns="http://www.w3.org/2000/svg">
<rect width="93" height="44" rx="22" fill="#00A97D"/>
<path d="M33 29V22.267C33 21.7245 32.8896 21.1876 32.6756 20.689C32.4616 20.1905 32.1483 19.7407 31.755 19.367L25.378 13.31C25.0063 12.9569 24.5132 12.76 24.0005 12.76C23.4878 12.76 22.9947 12.9569 22.623 13.31L16.245 19.367C15.8517 19.7407 15.5384 20.1905 15.3244 20.689C15.1104 21.1876 15 21.7245 15 22.267V29C15 29.5304 15.2107 30.0392 15.5858 30.4142C15.9609 30.7893 16.4696 31 17 31H31C31.5304 31 32.0391 30.7893 32.4142 30.4142C32.7893 30.0392 33 29.5304 33 29Z" stroke="white" stroke-width="2" stroke-linecap="round" stroke-linejoin="round"/>
<path d="M41.0662 26.5V17.7727H42.383V21.5653H46.7338V17.7727H48.0549V26.5H46.7338V22.6946H42.383V26.5H41.0662ZM52.6273 26.6321C52.0137 26.6321 51.4782 26.4915 51.0208 26.2102C50.5634 25.929 50.2083 25.5355 49.9554 25.0298C49.7026 24.5241 49.5762 23.9332 49.5762 23.2571C49.5762 22.5781 49.7026 21.9844 49.9554 21.4759C50.2083 20.9673 50.5634 20.5724 51.0208 20.2912C51.4782 20.0099 52.0137 19.8693 52.6273 19.8693C53.2409 19.8693 53.7765 20.0099 54.2338 20.2912C54.6912 20.5724 55.0463 20.9673 55.2992 21.4759C55.552 21.9844 55.6784 22.5781 55.6784 23.2571C55.6784 23.9332 55.552 24.5241 55.2992 25.0298C55.0463 25.5355 54.6912 25.929 54.2338 26.2102C53.7765 26.4915 53.2409 26.6321 52.6273 26.6321ZM52.6316 25.5625C53.0293 25.5625 53.3588 25.4574 53.6202 25.2472C53.8816 25.0369 54.0748 24.7571 54.1998 24.4077C54.3276 24.0582 54.3915 23.6733 54.3915 23.2528C54.3915 22.8352 54.3276 22.4517 54.1998 22.1023C54.0748 21.75 53.8816 21.4673 53.6202 21.2543C53.3588 21.0412 53.0293 20.9347 52.6316 20.9347C52.231 20.9347 51.8986 21.0412 51.6344 21.2543C51.373 21.4673 51.1784 21.75 51.0506 22.1023C50.9256 22.4517 50.8631 22.8352 50.8631 23.2528C50.8631 23.6733 50.9256 24.0582 51.0506 24.4077C51.1784 24.7571 51.373 25.0369 51.6344 25.2472C51.8986 25.4574 52.231 25.5625 52.6316 25.5625ZM57.1007 26.5V19.9545H58.3237V21.0199H58.4047C58.541 20.6591 58.764 20.3778 59.0737 20.1761C59.3833 19.9716 59.7541 19.8693 60.1859 19.8693C60.6234 19.8693 60.9899 19.9716 61.2853 20.1761C61.5836 20.3807 61.8038 20.6619 61.9458 21.0199H62.014C62.1703 20.6705 62.4189 20.392 62.7598 20.1847C63.1007 19.9744 63.5069 19.8693 63.9785 19.8693C64.5723 19.8693 65.0566 20.0554 65.4316 20.4276C65.8095 20.7997 65.9984 21.3608 65.9984 22.1108V26.5H64.7243V22.2301C64.7243 21.7869 64.6035 21.4659 64.362 21.267C64.1206 21.0682 63.8322 20.9688 63.497 20.9688C63.0822 20.9688 62.7598 21.0966 62.5297 21.3523C62.2995 21.6051 62.1845 21.9304 62.1845 22.3281V26.5H60.9146V22.1491C60.9146 21.794 60.8038 21.5085 60.5822 21.2926C60.3606 21.0767 60.0723 20.9688 59.7172 20.9688C59.4757 20.9688 59.2527 21.0327 59.0481 21.1605C58.8464 21.2855 58.6831 21.4602 58.5581 21.6847C58.4359 21.9091 58.3748 22.169 58.3748 22.4645V26.5H57.1007ZM70.5272 26.6321C69.8823 26.6321 69.3269 26.4943 68.861 26.2188C68.3979 25.9403 68.04 25.5497 67.7871 25.0469C67.5371 24.5412 67.4121 23.9489 67.4121 23.2699C67.4121 22.5994 67.5371 22.0085 67.7871 21.4972C68.04 20.9858 68.3922 20.5866 68.8439 20.2997C69.2985 20.0128 69.8297 19.8693 70.4377 19.8693C70.807 19.8693 71.165 19.9304 71.5115 20.0526C71.8581 20.1747 72.1692 20.3665 72.4448 20.6278C72.7203 20.8892 72.9377 21.2287 73.0968 21.6463C73.2559 22.0611 73.3354 22.5653 73.3354 23.1591V23.6108H68.1323V22.6562H72.0868C72.0868 22.321 72.0186 22.0241 71.8823 21.7656C71.7459 21.5043 71.5542 21.2983 71.307 21.1477C71.0627 20.9972 70.7757 20.9219 70.4462 20.9219C70.0882 20.9219 69.7757 21.0099 69.5087 21.1861C69.2445 21.3594 69.04 21.5866 68.8951 21.8679C68.753 22.1463 68.682 22.4489 68.682 22.7756V23.5213C68.682 23.9588 68.7587 24.331 68.9121 24.6378C69.0684 24.9446 69.2857 25.179 69.5641 25.3409C69.8425 25.5 70.1678 25.5795 70.54 25.5795C70.7814 25.5795 71.0016 25.5455 71.2005 25.4773C71.3993 25.4062 71.5712 25.3011 71.7161 25.1619C71.861 25.0227 71.9718 24.8509 72.0485 24.6463L73.2544 24.8636C73.1578 25.2187 72.9846 25.5298 72.7346 25.7969C72.4874 26.0611 72.1763 26.267 71.8013 26.4148C71.4292 26.5597 71.0044 26.6321 70.5272 26.6321Z" fill="white"/>
</svg>
