<svg width="93" height="44" viewBox="0 0 93 44" fill="none" xmlns="http://www.w3.org/2000/svg">
<rect width="93" height="44" rx="22" fill="#00A97D"/>
<g clip-path="url(#clip0_333_1674)">
<path d="M15 29C16.3682 28.21 17.9202 27.7942 19.5 27.7942C21.0798 27.7942 22.6318 28.21 24 29C25.3682 28.21 26.9202 27.7942 28.5 27.7942C30.0798 27.7942 31.6318 28.21 33 29" stroke="white" stroke-width="2" stroke-linecap="round" stroke-linejoin="round"/>
<path d="M15 16C16.3682 15.21 17.9202 14.7942 19.5 14.7942C21.0798 14.7942 22.6318 15.21 24 16C25.3682 15.21 26.9202 14.7942 28.5 14.7942C30.0798 14.7942 31.6318 15.21 33 16" stroke="white" stroke-width="2" stroke-linecap="round" stroke-linejoin="round"/>
<path d="M15 16V29" stroke="white" stroke-width="2" stroke-linecap="round" stroke-linejoin="round"/>
<path d="M24 16V29" stroke="white" stroke-width="2" stroke-linecap="round" stroke-linejoin="round"/>
<path d="M33 16V29" stroke="white" stroke-width="2" stroke-linecap="round" stroke-linejoin="round"/>
</g>
<path d="M41.3319 26.5V17.7727H42.6486V25.3665H46.6032V26.5H41.3319ZM48.003 26.5V19.9545H49.2772V26.5H48.003ZM48.6465 18.9446C48.4249 18.9446 48.2346 18.8707 48.0755 18.723C47.9192 18.5724 47.8411 18.3935 47.8411 18.1861C47.8411 17.9759 47.9192 17.7969 48.0755 17.6491C48.2346 17.4986 48.4249 17.4233 48.6465 17.4233C48.8681 17.4233 49.057 17.4986 49.2132 17.6491C49.3723 17.7969 49.4519 17.9759 49.4519 18.1861C49.4519 18.3935 49.3723 18.5724 49.2132 18.723C49.057 18.8707 48.8681 18.9446 48.6465 18.9446ZM51.0936 26.5V17.7727H52.3677V21.0156H52.4444C52.5183 20.8793 52.6248 20.7216 52.764 20.5426C52.9032 20.3636 53.0964 20.2074 53.3436 20.0739C53.5907 19.9375 53.9174 19.8693 54.3237 19.8693C54.8521 19.8693 55.3237 20.0028 55.7385 20.2699C56.1532 20.5369 56.4785 20.9219 56.7143 21.4247C56.9529 21.9276 57.0723 22.5327 57.0723 23.2401C57.0723 23.9474 56.9544 24.554 56.7186 25.0597C56.4828 25.5625 56.1589 25.9503 55.747 26.223C55.335 26.4929 54.8649 26.6278 54.3365 26.6278C53.9387 26.6278 53.6135 26.5611 53.3606 26.4276C53.1106 26.294 52.9146 26.1378 52.7725 25.9588C52.6305 25.7798 52.5211 25.6207 52.4444 25.4815H52.3379V26.5H51.0936ZM52.3422 23.2273C52.3422 23.6875 52.4089 24.0909 52.5424 24.4375C52.676 24.7841 52.8691 25.0554 53.122 25.2514C53.3748 25.4446 53.6845 25.5412 54.051 25.5412C54.4316 25.5412 54.7498 25.4403 55.0055 25.2386C55.2612 25.0341 55.4544 24.7571 55.585 24.4077C55.7186 24.0582 55.7853 23.6648 55.7853 23.2273C55.7853 22.7955 55.72 22.4077 55.5893 22.0639C55.4615 21.7202 55.2683 21.4489 55.0098 21.25C54.7541 21.0511 54.4345 20.9517 54.051 20.9517C53.6816 20.9517 53.3691 21.0469 53.1135 21.2372C52.8606 21.4276 52.6689 21.6932 52.5382 22.0341C52.4075 22.375 52.3422 22.7727 52.3422 23.2273ZM58.503 26.5V19.9545H59.7346V20.9943H59.8027C59.9221 20.642 60.1323 20.3651 60.4334 20.1634C60.7374 19.9588 61.0811 19.8565 61.4647 19.8565C61.5442 19.8565 61.638 19.8594 61.7459 19.8651C61.8567 19.8707 61.9434 19.8778 62.0059 19.8864V21.1051C61.9547 21.0909 61.8638 21.0753 61.7331 21.0582C61.6025 21.0384 61.4718 21.0284 61.3411 21.0284C61.04 21.0284 60.7715 21.0923 60.5357 21.2202C60.3027 21.3452 60.1181 21.5199 59.9817 21.7443C59.8453 21.9659 59.7772 22.2187 59.7772 22.5028V26.5H58.503ZM64.9547 26.6449C64.54 26.6449 64.165 26.5682 63.8297 26.4148C63.4945 26.2585 63.2289 26.0327 63.0328 25.7372C62.8397 25.4418 62.7431 25.0795 62.7431 24.6506C62.7431 24.2812 62.8141 23.9773 62.9561 23.7386C63.0982 23.5 63.29 23.3111 63.5314 23.1719C63.7729 23.0327 64.0428 22.9276 64.3411 22.8565C64.6394 22.7855 64.9434 22.7315 65.253 22.6946C65.6451 22.6491 65.9632 22.6122 66.2076 22.5838C66.4519 22.5526 66.6294 22.5028 66.7402 22.4347C66.851 22.3665 66.9064 22.2557 66.9064 22.1023V22.0724C66.9064 21.7003 66.8013 21.4119 66.5911 21.2074C66.3837 21.0028 66.074 20.9006 65.6621 20.9006C65.2331 20.9006 64.8951 20.9957 64.6479 21.1861C64.4036 21.3736 64.2346 21.5824 64.1408 21.8125L62.9434 21.5398C63.0854 21.142 63.2928 20.821 63.5655 20.5767C63.8411 20.3295 64.1578 20.1506 64.5158 20.0398C64.8738 19.9261 65.2502 19.8693 65.6451 19.8693C65.9064 19.8693 66.1834 19.9006 66.476 19.9631C66.7715 20.0227 67.0471 20.1335 67.3027 20.2955C67.5613 20.4574 67.7729 20.6889 67.9377 20.9901C68.1025 21.2884 68.1848 21.6761 68.1848 22.1534V26.5H66.9405V25.6051H66.8894C66.807 25.7699 66.6834 25.9318 66.5186 26.0909C66.3539 26.25 66.1422 26.3821 65.8837 26.4872C65.6252 26.5923 65.3155 26.6449 64.9547 26.6449ZM65.2317 25.6222C65.584 25.6222 65.8851 25.5526 66.1351 25.4134C66.388 25.2741 66.5797 25.0923 66.7104 24.8679C66.8439 24.6406 66.9107 24.3977 66.9107 24.1392V23.2955C66.8652 23.3409 66.7772 23.3835 66.6465 23.4233C66.5186 23.4602 66.3723 23.4929 66.2076 23.5213C66.0428 23.5469 65.8823 23.571 65.726 23.5938C65.5698 23.6136 65.4391 23.6307 65.334 23.6449C65.0868 23.6761 64.861 23.7287 64.6564 23.8026C64.4547 23.8764 64.2928 23.983 64.1706 24.1222C64.0513 24.2585 63.9917 24.4403 63.9917 24.6676C63.9917 24.983 64.1081 25.2216 64.3411 25.3835C64.574 25.5426 64.8709 25.6222 65.2317 25.6222ZM69.8819 26.5V19.9545H71.1135V20.9943H71.1816C71.301 20.642 71.5112 20.3651 71.8123 20.1634C72.1163 19.9588 72.46 19.8565 72.8436 19.8565C72.9231 19.8565 73.0169 19.8594 73.1248 19.8651C73.2356 19.8707 73.3223 19.8778 73.3848 19.8864V21.1051C73.3336 21.0909 73.2427 21.0753 73.112 21.0582C72.9814 21.0384 72.8507 21.0284 72.72 21.0284C72.4189 21.0284 72.1504 21.0923 71.9146 21.2202C71.6816 21.3452 71.497 21.5199 71.3606 21.7443C71.2243 21.9659 71.1561 22.2187 71.1561 22.5028V26.5H69.8819ZM75.492 28.9545C75.3017 28.9545 75.1284 28.9389 74.9721 28.9077C74.8159 28.8793 74.6994 28.848 74.6227 28.8139L74.9295 27.7699C75.1625 27.8324 75.3699 27.8594 75.5517 27.8509C75.7335 27.8423 75.894 27.7741 76.0332 27.6463C76.1752 27.5185 76.3002 27.3097 76.4082 27.0199L76.5659 26.5852L74.171 19.9545H75.5346L77.1923 25.0341H77.2605L78.9181 19.9545H80.286L77.5886 27.3736C77.4636 27.7145 77.3045 28.0028 77.1113 28.2386C76.9181 28.4773 76.688 28.6563 76.421 28.7756C76.1539 28.8949 75.8443 28.9545 75.492 28.9545Z" fill="white"/>
<defs>
<clipPath id="clip0_333_1674">
<rect width="24" height="24" fill="white" transform="translate(12 10)"/>
</clipPath>
</defs>
</svg>
