<svg width="93" height="44" viewBox="0 0 93 44" fill="none" xmlns="http://www.w3.org/2000/svg">
<rect width="93" height="44" rx="22" fill="#00A97D"/>
<g clip-path="url(#clip0_251_8679)">
<path d="M22 13.2C20.4357 13.5626 18.9969 14.3372 17.8328 15.4433C16.6688 16.5495 15.8219 17.9469 15.38 19.4907C14.9381 21.0344 14.9172 22.6683 15.3197 24.2229C15.7221 25.7774 16.5331 27.196 17.6685 28.3314C18.804 29.4669 20.2225 30.2779 21.7771 30.6803C23.3316 31.0827 24.9655 31.0619 26.5093 30.62C28.0531 30.178 29.4505 29.3311 30.5566 28.1671C31.6628 27.0031 32.4373 25.5643 32.8 24C32.8 23.7348 32.6946 23.4804 32.5071 23.2929C32.3195 23.1053 32.0652 23 31.8 23H28C27.8182 23.699 27.4549 24.3376 26.9471 24.8511C26.4392 25.3646 25.8046 25.7348 25.1077 25.9243C24.4107 26.1138 23.6761 26.1159 22.9781 25.9302C22.2801 25.7446 21.6435 25.3778 21.1328 24.8671C20.6221 24.3564 20.2554 23.7198 20.0697 23.0219C19.8841 22.3239 19.8861 21.5892 20.0756 20.8923C20.2651 20.1953 20.6353 19.5608 21.1489 19.0529C21.6624 18.545 22.301 18.1818 23 18V14C22.9875 13.8815 22.9517 13.7667 22.8946 13.6622C22.8374 13.5576 22.7601 13.4655 22.6671 13.3911C22.5741 13.3166 22.4672 13.2614 22.3527 13.2286C22.2382 13.1958 22.1183 13.1861 22 13.2Z" stroke="white" stroke-width="2" stroke-linecap="round" stroke-linejoin="round"/>
<path d="M27 13.5C28.2697 13.9471 29.423 14.6733 30.3748 15.6252C31.3267 16.577 32.0529 17.7303 32.5 19H28C27.6934 18.641 27.359 18.3066 27 18V13.5Z" stroke="white" stroke-width="2" stroke-linecap="round" stroke-linejoin="round"/>
</g>
<path d="M42.2362 17.7727H43.8342L46.6126 24.5568H46.7148L49.4933 17.7727H51.0913V26.5H49.8384V20.1847H49.7575L47.1836 26.4872H46.1438L43.57 20.1804H43.489V26.5H42.2362V17.7727ZM54.8082 26.6449C54.3935 26.6449 54.0185 26.5682 53.6832 26.4148C53.348 26.2585 53.0824 26.0327 52.8864 25.7372C52.6932 25.4418 52.5966 25.0795 52.5966 24.6506C52.5966 24.2812 52.6676 23.9773 52.8097 23.7386C52.9517 23.5 53.1435 23.3111 53.3849 23.1719C53.6264 23.0327 53.8963 22.9276 54.1946 22.8565C54.4929 22.7855 54.7969 22.7315 55.1065 22.6946C55.4986 22.6491 55.8168 22.6122 56.0611 22.5838C56.3054 22.5526 56.483 22.5028 56.5938 22.4347C56.7045 22.3665 56.7599 22.2557 56.7599 22.1023V22.0724C56.7599 21.7003 56.6548 21.4119 56.4446 21.2074C56.2372 21.0028 55.9276 20.9006 55.5156 20.9006C55.0866 20.9006 54.7486 20.9957 54.5014 21.1861C54.2571 21.3736 54.0881 21.5824 53.9943 21.8125L52.7969 21.5398C52.9389 21.142 53.1463 20.821 53.419 20.5767C53.6946 20.3295 54.0114 20.1506 54.3693 20.0398C54.7273 19.9261 55.1037 19.8693 55.4986 19.8693C55.7599 19.8693 56.0369 19.9006 56.3295 19.9631C56.625 20.0227 56.9006 20.1335 57.1562 20.2955C57.4148 20.4574 57.6264 20.6889 57.7912 20.9901C57.956 21.2884 58.0384 21.6761 58.0384 22.1534V26.5H56.794V25.6051H56.7429C56.6605 25.7699 56.5369 25.9318 56.3722 26.0909C56.2074 26.25 55.9957 26.3821 55.7372 26.4872C55.4787 26.5923 55.169 26.6449 54.8082 26.6449ZM55.0852 25.6222C55.4375 25.6222 55.7386 25.5526 55.9886 25.4134C56.2415 25.2741 56.4332 25.0923 56.5639 24.8679C56.6974 24.6406 56.7642 24.3977 56.7642 24.1392V23.2955C56.7188 23.3409 56.6307 23.3835 56.5 23.4233C56.3722 23.4602 56.2259 23.4929 56.0611 23.5213C55.8963 23.5469 55.7358 23.571 55.5795 23.5938C55.4233 23.6136 55.2926 23.6307 55.1875 23.6449C54.9403 23.6761 54.7145 23.7287 54.5099 23.8026C54.3082 23.8764 54.1463 23.983 54.0241 24.1222C53.9048 24.2585 53.8452 24.4403 53.8452 24.6676C53.8452 24.983 53.9616 25.2216 54.1946 25.3835C54.4276 25.5426 54.7244 25.6222 55.0852 25.6222ZM62.4925 26.6321C61.859 26.6321 61.3136 26.4886 60.8562 26.2017C60.4016 25.9119 60.0522 25.5128 59.8079 25.0043C59.5636 24.4957 59.4414 23.9134 59.4414 23.2571C59.4414 22.5923 59.5664 22.0057 59.8164 21.4972C60.0664 20.9858 60.4187 20.5866 60.8732 20.2997C61.3278 20.0128 61.8633 19.8693 62.4798 19.8693C62.9769 19.8693 63.4201 19.9616 63.8093 20.1463C64.1985 20.3281 64.5124 20.5838 64.7511 20.9134C64.9925 21.2429 65.136 21.6278 65.1815 22.0682H63.9414C63.8732 21.7614 63.717 21.4972 63.4727 21.2756C63.2312 21.054 62.9073 20.9432 62.5011 20.9432C62.146 20.9432 61.8349 21.0369 61.5678 21.2244C61.3036 21.4091 61.0977 21.6733 60.9499 22.017C60.8022 22.358 60.7283 22.7614 60.7283 23.2273C60.7283 23.7045 60.8008 24.1165 60.9457 24.4631C61.0906 24.8097 61.2951 25.0781 61.5593 25.2685C61.8263 25.4588 62.1403 25.554 62.5011 25.554C62.7425 25.554 62.9613 25.5099 63.1573 25.4219C63.3562 25.331 63.5224 25.2017 63.6559 25.0341C63.7923 24.8665 63.8874 24.6648 63.9414 24.429H65.1815C65.136 24.8523 64.9982 25.2301 64.7681 25.5625C64.538 25.8949 64.2298 26.1562 63.8434 26.3466C63.4599 26.5369 63.0096 26.6321 62.4925 26.6321ZM66.544 26.5V19.9545H67.7756V20.9943H67.8438C67.9631 20.642 68.1733 20.3651 68.4744 20.1634C68.7784 19.9588 69.1222 19.8565 69.5057 19.8565C69.5852 19.8565 69.679 19.8594 69.7869 19.8651C69.8977 19.8707 69.9844 19.8778 70.0469 19.8864V21.1051C69.9957 21.0909 69.9048 21.0753 69.7741 21.0582C69.6435 21.0384 69.5128 21.0284 69.3821 21.0284C69.081 21.0284 68.8125 21.0923 68.5767 21.2202C68.3438 21.3452 68.1591 21.5199 68.0227 21.7443C67.8864 21.9659 67.8182 22.2187 67.8182 22.5028V26.5H66.544ZM73.6722 26.6321C73.0586 26.6321 72.5231 26.4915 72.0657 26.2102C71.6083 25.929 71.2532 25.5355 71.0004 25.0298C70.7475 24.5241 70.6211 23.9332 70.6211 23.2571C70.6211 22.5781 70.7475 21.9844 71.0004 21.4759C71.2532 20.9673 71.6083 20.5724 72.0657 20.2912C72.5231 20.0099 73.0586 19.8693 73.6722 19.8693C74.2859 19.8693 74.8214 20.0099 75.2788 20.2912C75.7362 20.5724 76.0913 20.9673 76.3441 21.4759C76.5969 21.9844 76.7234 22.5781 76.7234 23.2571C76.7234 23.9332 76.5969 24.5241 76.3441 25.0298C76.0913 25.5355 75.7362 25.929 75.2788 26.2102C74.8214 26.4915 74.2859 26.6321 73.6722 26.6321ZM73.6765 25.5625C74.0742 25.5625 74.4038 25.4574 74.6651 25.2472C74.9265 25.0369 75.1197 24.7571 75.2447 24.4077C75.3725 24.0582 75.4364 23.6733 75.4364 23.2528C75.4364 22.8352 75.3725 22.4517 75.2447 22.1023C75.1197 21.75 74.9265 21.4673 74.6651 21.2543C74.4038 21.0412 74.0742 20.9347 73.6765 20.9347C73.2759 20.9347 72.9435 21.0412 72.6793 21.2543C72.418 21.4673 72.2234 21.75 72.0955 22.1023C71.9705 22.4517 71.908 22.8352 71.908 23.2528C71.908 23.6733 71.9705 24.0582 72.0955 24.4077C72.2234 24.7571 72.418 25.0369 72.6793 25.2472C72.9435 25.4574 73.2759 25.5625 73.6765 25.5625ZM83.0504 21.5526L81.8956 21.7571C81.8473 21.6094 81.7706 21.4687 81.6655 21.3352C81.5632 21.2017 81.424 21.0923 81.2479 21.0071C81.0717 20.9219 80.8516 20.8793 80.5874 20.8793C80.2266 20.8793 79.9254 20.9602 79.6839 21.1222C79.4425 21.2812 79.3217 21.4872 79.3217 21.7401C79.3217 21.9588 79.4027 22.1349 79.5646 22.2685C79.7266 22.402 79.9879 22.5114 80.3487 22.5966L81.3885 22.8352C81.9908 22.9744 82.4396 23.1889 82.7351 23.4787C83.0305 23.7685 83.1783 24.1449 83.1783 24.608C83.1783 25 83.0646 25.3494 82.8374 25.6562C82.6129 25.9602 82.299 26.1989 81.8956 26.3722C81.495 26.5455 81.0305 26.6321 80.5021 26.6321C79.7692 26.6321 79.1712 26.4759 78.7081 26.1634C78.245 25.848 77.9609 25.4006 77.8558 24.821L79.0874 24.6335C79.1641 24.9545 79.3217 25.1974 79.5604 25.3622C79.799 25.5241 80.1101 25.6051 80.4936 25.6051C80.9112 25.6051 81.245 25.5185 81.495 25.3452C81.745 25.169 81.87 24.9545 81.87 24.7017C81.87 24.4972 81.7933 24.3253 81.6399 24.1861C81.4893 24.0469 81.2578 23.9418 80.9453 23.8707L79.8374 23.6278C79.2266 23.4886 78.7749 23.267 78.4822 22.9631C78.1925 22.6591 78.0476 22.2741 78.0476 21.8082C78.0476 21.4219 78.1555 21.0838 78.3714 20.794C78.5874 20.5043 78.8857 20.2784 79.2663 20.1165C79.647 19.9517 80.0831 19.8693 80.5746 19.8693C81.282 19.8693 81.8388 20.0227 82.245 20.3295C82.6513 20.6335 82.9197 21.0412 83.0504 21.5526Z" fill="white"/>
<defs>
<clipPath id="clip0_251_8679">
<rect width="24" height="24" fill="white" transform="translate(12 10)"/>
</clipPath>
</defs>
</svg>
