<svg width="93" height="44" viewBox="0 0 93 44" fill="none" xmlns="http://www.w3.org/2000/svg">
<rect width="93" height="44" rx="22" fill="#00A97D"/>
<path d="M16 28C16 26.9391 16.4214 25.9217 17.1716 25.1716C17.9217 24.4214 18.9391 24 20 24H28C29.0609 24 30.0783 24.4214 30.8284 25.1716C31.5786 25.9217 32 26.9391 32 28C32 28.5304 31.7893 29.0391 31.4142 29.4142C31.0391 29.7893 30.5304 30 30 30H18C17.4696 30 16.9609 29.7893 16.5858 29.4142C16.2107 29.0391 16 28.5304 16 28Z" stroke="white" stroke-width="1.5" stroke-linejoin="round"/>
<path d="M24 20C25.6569 20 27 18.6569 27 17C27 15.3431 25.6569 14 24 14C22.3431 14 21 15.3431 21 17C21 18.6569 22.3431 20 24 20Z" stroke="white" stroke-width="1.5"/>
<path d="M44.0955 26.5V17.7727H47.2063C47.8853 17.7727 48.4478 17.8963 48.8938 18.1435C49.3398 18.3906 49.6737 18.7287 49.8952 19.1577C50.1168 19.5838 50.2276 20.0639 50.2276 20.598C50.2276 21.1349 50.1154 21.6179 49.891 22.0469C49.6694 22.473 49.3342 22.8111 48.8853 23.0611C48.4393 23.3082 47.8782 23.4318 47.2021 23.4318H45.0629V22.3153H47.0827C47.5117 22.3153 47.8597 22.2415 48.1268 22.0938C48.3938 21.9432 48.5898 21.7386 48.7148 21.4801C48.8398 21.2216 48.9023 20.9276 48.9023 20.598C48.9023 20.2685 48.8398 19.9759 48.7148 19.7202C48.5898 19.4645 48.3924 19.2642 48.1225 19.1193C47.8555 18.9744 47.5032 18.902 47.0657 18.902H45.4123V26.5H44.0955ZM51.669 26.5V19.9545H52.9006V20.9943H52.9688C53.0881 20.642 53.2983 20.3651 53.5994 20.1634C53.9034 19.9588 54.2472 19.8565 54.6307 19.8565C54.7102 19.8565 54.804 19.8594 54.9119 19.8651C55.0227 19.8707 55.1094 19.8778 55.1719 19.8864V21.1051C55.1207 21.0909 55.0298 21.0753 54.8991 21.0582C54.7685 21.0384 54.6378 21.0284 54.5071 21.0284C54.206 21.0284 53.9375 21.0923 53.7017 21.2202C53.4688 21.3452 53.2841 21.5199 53.1477 21.7443C53.0114 21.9659 52.9432 22.2187 52.9432 22.5028V26.5H51.669ZM58.7972 26.6321C58.1836 26.6321 57.6481 26.4915 57.1907 26.2102C56.7333 25.929 56.3782 25.5355 56.1254 25.0298C55.8725 24.5241 55.7461 23.9332 55.7461 23.2571C55.7461 22.5781 55.8725 21.9844 56.1254 21.4759C56.3782 20.9673 56.7333 20.5724 57.1907 20.2912C57.6481 20.0099 58.1836 19.8693 58.7972 19.8693C59.4109 19.8693 59.9464 20.0099 60.4038 20.2912C60.8612 20.5724 61.2163 20.9673 61.4691 21.4759C61.7219 21.9844 61.8484 22.5781 61.8484 23.2571C61.8484 23.9332 61.7219 24.5241 61.4691 25.0298C61.2163 25.5355 60.8612 25.929 60.4038 26.2102C59.9464 26.4915 59.4109 26.6321 58.7972 26.6321ZM58.8015 25.5625C59.1992 25.5625 59.5288 25.4574 59.7901 25.2472C60.0515 25.0369 60.2447 24.7571 60.3697 24.4077C60.4975 24.0582 60.5614 23.6733 60.5614 23.2528C60.5614 22.8352 60.4975 22.4517 60.3697 22.1023C60.2447 21.75 60.0515 21.4673 59.7901 21.2543C59.5288 21.0412 59.1992 20.9347 58.8015 20.9347C58.4009 20.9347 58.0685 21.0412 57.8043 21.2543C57.543 21.4673 57.3484 21.75 57.2205 22.1023C57.0955 22.4517 57.033 22.8352 57.033 23.2528C57.033 23.6733 57.0955 24.0582 57.2205 24.4077C57.3484 24.7571 57.543 25.0369 57.8043 25.2472C58.0685 25.4574 58.4009 25.5625 58.8015 25.5625ZM66.3857 19.9545V20.9773H62.6868V19.9545H66.3857ZM63.701 26.5V19.196C63.701 18.7869 63.7905 18.4474 63.9695 18.1776C64.1484 17.9048 64.3857 17.7017 64.6811 17.5682C64.9766 17.4318 65.2976 17.3636 65.6442 17.3636C65.8999 17.3636 66.1186 17.3849 66.3004 17.4276C66.4822 17.4673 66.6172 17.5043 66.7053 17.5384L66.407 18.5696C66.3473 18.5526 66.2706 18.5327 66.1768 18.5099C66.0831 18.4844 65.9695 18.4716 65.8359 18.4716C65.5263 18.4716 65.3047 18.5483 65.1712 18.7017C65.0405 18.8551 64.9751 19.0767 64.9751 19.3665V26.5H63.701ZM67.7003 26.5V19.9545H68.9744V26.5H67.7003ZM68.3438 18.9446C68.1222 18.9446 67.9318 18.8707 67.7727 18.723C67.6165 18.5724 67.5384 18.3935 67.5384 18.1861C67.5384 17.9759 67.6165 17.7969 67.7727 17.6491C67.9318 17.4986 68.1222 17.4233 68.3438 17.4233C68.5653 17.4233 68.7543 17.4986 68.9105 17.6491C69.0696 17.7969 69.1491 17.9759 69.1491 18.1861C69.1491 18.3935 69.0696 18.5724 68.9105 18.723C68.7543 18.8707 68.5653 18.9446 68.3438 18.9446ZM71.9627 17.7727V26.5H70.6886V17.7727H71.9627ZM76.4979 26.6321C75.853 26.6321 75.2976 26.4943 74.8317 26.2188C74.3686 25.9403 74.0107 25.5497 73.7578 25.0469C73.5078 24.5412 73.3828 23.9489 73.3828 23.2699C73.3828 22.5994 73.5078 22.0085 73.7578 21.4972C74.0107 20.9858 74.3629 20.5866 74.8146 20.2997C75.2692 20.0128 75.8004 19.8693 76.4084 19.8693C76.7777 19.8693 77.1357 19.9304 77.4822 20.0526C77.8288 20.1747 78.1399 20.3665 78.4155 20.6278C78.6911 20.8892 78.9084 21.2287 79.0675 21.6463C79.2266 22.0611 79.3061 22.5653 79.3061 23.1591V23.6108H74.103V22.6562H78.0575C78.0575 22.321 77.9893 22.0241 77.853 21.7656C77.7166 21.5043 77.5249 21.2983 77.2777 21.1477C77.0334 20.9972 76.7464 20.9219 76.4169 20.9219C76.0589 20.9219 75.7464 21.0099 75.4794 21.1861C75.2152 21.3594 75.0107 21.5866 74.8658 21.8679C74.7237 22.1463 74.6527 22.4489 74.6527 22.7756V23.5213C74.6527 23.9588 74.7294 24.331 74.8828 24.6378C75.0391 24.9446 75.2564 25.179 75.5348 25.3409C75.8132 25.5 76.1385 25.5795 76.5107 25.5795C76.7521 25.5795 76.9723 25.5455 77.1712 25.4773C77.37 25.4062 77.5419 25.3011 77.6868 25.1619C77.8317 25.0227 77.9425 24.8509 78.0192 24.6463L79.2251 24.8636C79.1286 25.2187 78.9553 25.5298 78.7053 25.7969C78.4581 26.0611 78.147 26.267 77.772 26.4148C77.3999 26.5597 76.9751 26.6321 76.4979 26.6321Z" fill="white"/>
</svg>
