<svg width="93" height="44" viewBox="0 0 93 44" fill="none" xmlns="http://www.w3.org/2000/svg">
<rect width="93" height="44" rx="22" fill="#00A97D"/>
<g clip-path="url(#clip0_251_9402)">
<path d="M23.795 31H17C16.4696 31 15.9609 30.7893 15.5858 30.4142C15.2107 30.0391 15 29.5304 15 29V17C15 16.4696 15.2107 15.9609 15.5858 15.5858C15.9609 15.2107 16.4696 15 17 15H29C29.5304 15 30.0391 15.2107 30.4142 15.5858C30.7893 15.9609 31 16.4696 31 17V21" stroke="white" stroke-width="2" stroke-linecap="round" stroke-linejoin="round"/>
<path d="M26 28C26 29.0609 26.4214 30.0783 27.1716 30.8284C27.9217 31.5786 28.9391 32 30 32C31.0609 32 32.0783 31.5786 32.8284 30.8284C33.5786 30.0783 34 29.0609 34 28C34 26.9391 33.5786 25.9217 32.8284 25.1716C32.0783 24.4214 31.0609 24 30 24C28.9391 24 27.9217 24.4214 27.1716 25.1716C26.4214 25.9217 26 26.9391 26 28Z" stroke="white" stroke-width="2" stroke-linecap="round" stroke-linejoin="round"/>
<path d="M27 13V17" stroke="white" stroke-width="2" stroke-linecap="round" stroke-linejoin="round"/>
<path d="M19 13V17" stroke="white" stroke-width="2" stroke-linecap="round" stroke-linejoin="round"/>
<path d="M15 21H31" stroke="white" stroke-width="2" stroke-linecap="round" stroke-linejoin="round"/>
<path d="M30 26.4961V28.0001L31 29.0001" stroke="white" stroke-width="2" stroke-linecap="round" stroke-linejoin="round"/>
</g>
<path d="M44.3493 26.5L41.9288 17.7727H43.3137L45.014 24.5312H45.095L46.8635 17.7727H48.2356L50.0041 24.5355H50.0851L51.7811 17.7727H53.1703L50.7456 26.5H49.4203L47.5836 19.9631H47.5154L45.6788 26.5H44.3493ZM56.4451 26.6321C55.8002 26.6321 55.2449 26.4943 54.7789 26.2188C54.3159 25.9403 53.9579 25.5497 53.7051 25.0469C53.4551 24.5412 53.3301 23.9489 53.3301 23.2699C53.3301 22.5994 53.4551 22.0085 53.7051 21.4972C53.9579 20.9858 54.3102 20.5866 54.7619 20.2997C55.2164 20.0128 55.7477 19.8693 56.3556 19.8693C56.725 19.8693 57.0829 19.9304 57.4295 20.0526C57.7761 20.1747 58.0872 20.3665 58.3627 20.6278C58.6383 20.8892 58.8556 21.2287 59.0147 21.6463C59.1738 22.0611 59.2534 22.5653 59.2534 23.1591V23.6108H54.0502V22.6562H58.0048C58.0048 22.321 57.9366 22.0241 57.8002 21.7656C57.6639 21.5043 57.4721 21.2983 57.225 21.1477C56.9806 20.9972 56.6937 20.9219 56.3642 20.9219C56.0062 20.9219 55.6937 21.0099 55.4267 21.1861C55.1625 21.3594 54.9579 21.5866 54.813 21.8679C54.671 22.1463 54.6 22.4489 54.6 22.7756V23.5213C54.6 23.9588 54.6767 24.331 54.8301 24.6378C54.9863 24.9446 55.2037 25.179 55.4821 25.3409C55.7605 25.5 56.0858 25.5795 56.4579 25.5795C56.6994 25.5795 56.9196 25.5455 57.1184 25.4773C57.3173 25.4062 57.4892 25.3011 57.6341 25.1619C57.7789 25.0227 57.8897 24.8509 57.9664 24.6463L59.1724 24.8636C59.0758 25.2187 58.9025 25.5298 58.6525 25.7969C58.4054 26.0611 58.0943 26.267 57.7193 26.4148C57.3471 26.5597 56.9224 26.6321 56.4451 26.6321ZM63.4881 26.6321C62.8432 26.6321 62.2878 26.4943 61.8219 26.2188C61.3588 25.9403 61.0009 25.5497 60.748 25.0469C60.498 24.5412 60.373 23.9489 60.373 23.2699C60.373 22.5994 60.498 22.0085 60.748 21.4972C61.0009 20.9858 61.3532 20.5866 61.8049 20.2997C62.2594 20.0128 62.7907 19.8693 63.3986 19.8693C63.7679 19.8693 64.1259 19.9304 64.4725 20.0526C64.8191 20.1747 65.1301 20.3665 65.4057 20.6278C65.6813 20.8892 65.8986 21.2287 66.0577 21.6463C66.2168 22.0611 66.2963 22.5653 66.2963 23.1591V23.6108H61.0932V22.6562H65.0478C65.0478 22.321 64.9796 22.0241 64.8432 21.7656C64.7069 21.5043 64.5151 21.2983 64.2679 21.1477C64.0236 20.9972 63.7367 20.9219 63.4071 20.9219C63.0492 20.9219 62.7367 21.0099 62.4696 21.1861C62.2054 21.3594 62.0009 21.5866 61.856 21.8679C61.714 22.1463 61.6429 22.4489 61.6429 22.7756V23.5213C61.6429 23.9588 61.7196 24.331 61.873 24.6378C62.0293 24.9446 62.2466 25.179 62.525 25.3409C62.8034 25.5 63.1287 25.5795 63.5009 25.5795C63.7424 25.5795 63.9625 25.5455 64.1614 25.4773C64.3603 25.4062 64.5321 25.3011 64.677 25.1619C64.8219 25.0227 64.9327 24.8509 65.0094 24.6463L66.2154 24.8636C66.1188 25.2187 65.9455 25.5298 65.6955 25.7969C65.4483 26.0611 65.1373 26.267 64.7623 26.4148C64.3901 26.5597 63.9654 26.6321 63.4881 26.6321ZM68.8819 24.2798L68.8734 22.7244H69.095L71.7029 19.9545H73.2285L70.2541 23.108H70.0538L68.8819 24.2798ZM67.71 26.5V17.7727H68.9842V26.5H67.71ZM71.8436 26.5L69.4998 23.3892L70.3777 22.4986L73.4075 26.5H71.8436ZM75.6639 17.7727V26.5H74.3897V17.7727H75.6639ZM78.1834 28.9545C77.9931 28.9545 77.8198 28.9389 77.6635 28.9077C77.5073 28.8793 77.3908 28.848 77.3141 28.8139L77.6209 27.7699C77.8539 27.8324 78.0613 27.8594 78.2431 27.8509C78.4249 27.8423 78.5854 27.7741 78.7246 27.6463C78.8667 27.5185 78.9917 27.3097 79.0996 27.0199L79.2573 26.5852L76.8624 19.9545H78.226L79.8837 25.0341H79.9519L81.6096 19.9545H82.9775L80.28 27.3736C80.155 27.7145 79.9959 28.0028 79.8027 28.2386C79.6096 28.4773 79.3794 28.6563 79.1124 28.7756C78.8453 28.8949 78.5357 28.9545 78.1834 28.9545Z" fill="white"/>
<defs>
<clipPath id="clip0_251_9402">
<rect width="24" height="24" fill="white" transform="translate(12 10)"/>
</clipPath>
</defs>
</svg>
